<?xml version="1.0" encoding="UTF-8"?> <svg xmlns="http://www.w3.org/2000/svg" xmlns:xlink="http://www.w3.org/1999/xlink" xmlns:xodm="http://www.corel.com/coreldraw/odm/2003" xml:space="preserve" width="184.953mm" height="52.2237mm" version="1.1" style="shape-rendering:geometricPrecision; text-rendering:geometricPrecision; image-rendering:optimizeQuality; fill-rule:evenodd; clip-rule:evenodd" viewBox="0 0 184.6005 52.1243"> <defs> <style type="text/css"> .str0 {stroke:#AFAC05;stroke-width:0.5282;stroke-miterlimit:22.9256} .fil1 {fill:url(#id0)} .fil7 {fill:url(#id1)} .fil6 {fill:url(#id2)} .fil8 {fill:url(#id3)} .fil4 {fill:url(#id4)} .fil5 {fill:url(#id5)} .fil0 {fill:url(#id6)} .fil2 {fill:url(#id7)} .fil3 {fill:url(#id8)} </style> <linearGradient id="id0" gradientUnits="userSpaceOnUse" x1="53.6603" y1="24.1886" x2="66.2522" y2="24.3147"> <stop offset="0" style="stop-opacity:1; stop-color:#998208"></stop> <stop offset="1" style="stop-opacity:1; stop-color:#EEE305"></stop> </linearGradient> <linearGradient id="id1" gradientUnits="userSpaceOnUse" xlink:href="#id0" x1="150.112" y1="28.0886" x2="162.1005" y2="28.2591"> </linearGradient> <linearGradient id="id2" gradientUnits="userSpaceOnUse" xlink:href="#id0" x1="140.2372" y1="24.1886" x2="152.828" y2="24.3147"> </linearGradient> <linearGradient id="id3" gradientUnits="userSpaceOnUse" xlink:href="#id0" x1="161.0137" y1="20.8769" x2="183.3705" y2="21.19"> </linearGradient> <linearGradient id="id4" gradientUnits="userSpaceOnUse" xlink:href="#id0" x1="103.8115" y1="24.2892" x2="120.6148" y2="24.5166"> </linearGradient> <linearGradient id="id5" gradientUnits="userSpaceOnUse" xlink:href="#id0" x1="115.5787" y1="28.7992" x2="139.2582" y2="29.5603"> </linearGradient> <linearGradient id="id6" gradientUnits="userSpaceOnUse" xlink:href="#id0" x1="3.0492" y1="17.3036" x2="66.7762" y2="19.4324"> </linearGradient> <linearGradient id="id7" gradientUnits="userSpaceOnUse" xlink:href="#id0" x1="59.9099" y1="36.8485" x2="83.4241" y2="37.2018"> </linearGradient> <linearGradient id="id8" gradientUnits="userSpaceOnUse" xlink:href="#id0" x1="82.8358" y1="20.8769" x2="105.1936" y2="21.19"> </linearGradient> </defs> <g id="Layer_x0020_1"> <metadata id="CorelCorpID_0Corel-Layer"></metadata> <g id="_888004608"> <path class="fil0 str0" d="M20.9327 23.1958c7.3922,0 10.2587,-7.1908 10.2587,-7.9957 0,-0.2511 -0.1511,-0.3016 -0.3519,-0.3016 -0.3017,0 -0.7042,1.9609 -2.213,3.7714 -1.609,1.9615 -3.3692,3.018 -5.8837,3.018 -4.2237,0 -6.8387,-4.6274 -6.8387,-8.5495 0,-7.0401 5.2796,-11.5665 11.3145,-11.5665 4.6269,0 8.8008,2.6654 11.4153,6.3869 -3.5198,10.6108 -12.4713,26.7031 -25.5462,26.7031 -4.9284,0 -12.0195,-3.8723 -12.0195,-10.0069 0,-1.1066 0.352,-2.4143 1.7103,-2.8666 1.2068,-0.3521 2.3128,-0.855 2.3128,-2.3639 0,-1.0556 -0.6537,-1.6593 -1.5588,-1.6593 -1.6093,-0.0005 -3.2686,2.1118 -3.2686,7.6942 0,5.9843 3.9725,11.0126 11.3148,11.0126 13.8293,0 23.1322,-16.1422 28.0108,-27.2058 2.7656,3.9731 3.8724,9.2025 3.8724,14.5334 0,1.8606 -0.4025,3.0169 -0.4025,4.4255 0,0.8045 -2.7663,5.7828 -2.7663,7.1914 0,0.6531 0.1513,1.0556 1.0057,1.0556 1.5593,0 1.2073,-0.7536 2.8166,-7.8449 0.8549,-3.7719 9.3535,-19.1597 19.6123,-23.032 4.375,-1.6592 5.8335,-2.213 5.8335,-4.0231 0,-0.8049 -0.3525,-1.1569 -1.4585,-1.1569 -2.313,0 -5.8338,3.4703 -8.0461,4.9283 -1.0557,0.7041 -3.7215,1.3577 -5.6326,1.3577 -2.8662,0 -3.1179,-0.5028 -3.7215,-0.5028 -0.3009,0 -0.4523,0.1509 -0.4523,0.4524 0,0.352 2.0617,0.6542 4.2242,0.6542 1.5085,0 3.0674,-0.2012 4.3751,-0.6037l0.1006 0.1009c-6.7385,5.1795 -11.6669,12.5715 -14.7848,20.4669l-0.1003 -0.1003c0.3017,-2.4642 0.704,-4.7775 0.704,-7.3925 0,-5.4307 -1.056,-10.2088 -3.9725,-14.2819 0.3014,-1.5084 1.056,-3.6716 1.056,-4.3756 0,-0.5028 -0.302,-0.8044 -0.6036,-0.8044 -0.4023,0 -0.6037,0.2515 -0.7041,0.704 -0.2516,1.3578 -0.6035,2.2131 -0.9059,3.4199 -2.7148,-2.6648 -6.0338,-4.1738 -10.5597,-4.1738 -7.8959,0 -15.69,6.3364 -15.69,14.8854 0,4.1235 3.1179,8.0463 7.5433,8.0463z"></path> <path class="fil1 str0" d="M63.8789 14.2442c0,0.7547 0.4524,1.3073 1.1565,1.3073 1.1059,0 1.7601,-1.0556 1.7601,-1.9105 0,-0.7545 -0.4528,-1.3077 -1.1569,-1.3077 -1.1062,0 -1.7597,1.0561 -1.7597,1.9109zm-4.9285 8.1472l0 0c-0.7543,1.056 -3.0172,3.369 -4.3246,4.8778 -1.3078,1.508 -1.5089,1.7097 -1.5089,1.81 0,0.1508 0.0503,0.3021 0.2011,0.3021 0.1509,0 0.2013,-0.0509 0.7043,-0.6537 2.4138,-2.7162 3.6711,-4.023 4.2746,-4.6271l0.1004 0.1008c-1.7098,2.5649 -4.7771,5.9843 -4.7771,9.3534 0,1.5094 0.8548,2.615 2.4138,2.615 1.4081,0 3.4698,-1.3073 5.934,-3.8718 2.1122,-2.2131 3.0678,-3.3696 3.0678,-3.5204 0,-0.2012 -0.1514,-0.2511 -0.3016,-0.2511 -0.1009,0 -1.7605,2.0119 -3.0677,3.319 -1.6593,1.7093 -3.9729,3.7216 -5.5821,3.7216 -0.4523,0 -0.9552,-0.2017 -0.9552,-1.0566 0,-1.0562 0.9552,-2.3633 6.9897,-12.3204l-3.1686 0.2013z"></path> <path class="fil2 str0" d="M60.2016 49.3455c0,-4.6772 8.2973,-9.0513 11.6163,-11.0636 -1.0061,3.0175 -6.387,12.9746 -10.1584,12.9746 -1.3072,0 -1.4579,-0.754 -1.4579,-1.911zm19.9142 -26.703l0 0c-0.6543,1.4081 -1.459,2.7662 -2.1128,3.8218l-0.1008 -0.1009c0.1512,-0.5027 0.2017,-1.106 0.2017,-1.76 0,-1.7092 -1.0062,-2.4133 -2.6151,-2.4133 -2.9669,0 -7.292,2.615 -9.5552,4.9783 -1.4079,1.508 -1.6088,1.76 -1.6088,1.9115 0,0.1502 0.1006,0.3015 0.2009,0.3015 0.1506,0 0.2517,-0.3526 0.5536,-0.3526 0.1503,0 0.2008,0.0511 0.2008,0.1514 0,0.754 -0.3521,1.3582 -0.3521,2.6145 0,2.6149 0.7542,4.3752 3.118,4.3752 2.7658,0 6.1855,-3.9718 7.5936,-5.9841l0.1009 0.1009c-1.861,3.6206 -2.7658,5.5321 -3.5207,7.1913 -8.3978,4.7776 -13.3262,7.7946 -13.3262,11.8182 0,1.7091 1.0562,2.5641 2.5146,2.5641 4.6762,0 11.3647,-10.812 13.2252,-14.6339 2.0624,-0.7041 5.3309,-3.1178 7.9964,-6.0848 1.4579,-1.6093 1.8104,-1.9609 1.8104,-2.2131 0,-0.1508 -0.1008,-0.2516 -0.2017,-0.2516 -0.2012,0 -0.2511,0.1513 -1.0556,1.1071 -2.1621,2.5644 -5.3307,5.5309 -8.1466,6.6874l-0.1008 -0.1003 8.4487 -13.9796 -3.2686 0.2511zm-4.1241 0.1513l0 0c1.2075,0 1.5086,0.7539 1.5086,1.8611 0,2.7656 -5.7323,10.9122 -9.4543,10.9122 -0.8546,0 -1.3073,-0.7041 -1.3073,-1.5594 0,-3.8219 5.2298,-11.2138 9.2529,-11.2138z"></path> <path class="fil3 str0" d="M94.341 17.7645c3.4702,-6.8388 6.7893,-11.2643 9.203,-11.2643 1.1065,0 1.509,0.6032 1.509,1.157 0,2.4636 -2.4138,6.0843 -6.7895,9.9066l-6.7382 5.9336 -0.1003 -0.1004 2.916 -5.6325zm-9.3529 18.2045l0 0c1.4076,-2.8662 10.5602,-13.1752 13.2251,-13.1752 0.2517,0 0.5532,0.3015 0.5532,0.6536 0,2.0119 -5.5319,5.532 -5.5319,9.9571 0,2.2129 1.0061,2.7658 2.0122,2.7658 1.2064,0 2.8662,-0.5529 6.4367,-4.4761 1.3074,-1.4071 2.5142,-2.8161 2.5142,-2.9665 0,-0.1513 -0.1009,-0.2516 -0.2512,-0.2516 -0.2514,0 -1.4084,1.6093 -2.5644,2.7657 -2.8162,2.9165 -4.3252,4.3248 -5.884,4.3248 -0.503,0 -0.7542,-0.3525 -0.7542,-0.7041 0,-2.2126 5.5317,-7.2918 5.5317,-10.0574 0,-1.3077 -0.5534,-2.615 -2.0121,-2.615 -1.7595,0 -5.4305,3.1683 -11.0124,9.5546l-0.1009 -0.1009c1.6093,-2.3633 3.9731,-6.7888 4.1742,-7.0903 1.7102,-2.5646 14.7343,-10.812 14.8351,-16.1424 0,-1.811 -0.7047,-2.5146 -2.4138,-2.5146 -5.8332,0 -12.0188,13.6277 -13.7789,15.8912 -3.3695,4.3247 -6.236,7.0899 -6.236,7.4424 0,0.2007 0.0502,0.3016 0.2011,0.3016 0.2013,0 0.2013,-0.2012 2.3638,-2.5646 1.8101,-1.9612 2.5146,-3.0173 3.9222,-4.5762l0.0505 0.1008c-2.8162,4.2237 -5.6324,8.8 -8.3987,13.4768l3.1184 0 0 0.0005z"></path> <path class="fil4 str0" d="M112.3891 17.6642l-2.1127 0c-0.0499,0 -0.2005,0.1508 -0.2005,0.3015 0,0.1508 0.0497,0.3016 0.251,0.3016l1.8101 0c-2.3129,3.3695 -5.3803,6.9906 -6.8894,8.6498 -1.9608,2.213 -2.1621,2.4138 -2.1621,2.615 0,0.1508 0.1003,0.2007 0.2516,0.2007 0.1504,0 1.509,-1.6587 1.9616,-2.1622 1.3576,-1.5587 2.1116,-2.3631 3.0672,-3.5196l0.1005 0.1003c-2.9671,4.2242 -4.6768,6.6884 -4.6768,9.5551 0,1.1565 0.6535,2.4138 2.3633,2.4638 1.4081,0 3.2191,-1.0562 6.286,-4.1235 1.1064,-1.0561 2.7158,-2.9166 2.7158,-3.0673 0,-0.2018 -0.0504,-0.3026 -0.2517,-0.3026 -0.2517,0 -0.5526,0.8054 -3.1178,3.319 -2.263,2.264 -4.0231,3.5713 -5.5315,3.5713 -0.6542,0 -0.9551,-0.2522 -0.9551,-0.755 0,-2.3124 7.9956,-13.7785 9.5541,-16.5447l6.236 0c0.2013,0 0.2517,-0.1503 0.2517,-0.3016 0,-0.2012 -0.1508,-0.3015 -0.2517,-0.3015l-5.8835 0 3.2686 -5.0288 -3.1183 0.2012 -2.9666 4.8276z"></path> <path class="fil5 str0" d="M129.4802 22.4917c-2.5141,5.079 -8.8001,13.0749 -12.0184,13.0749 -0.6542,0 -0.9552,-0.6032 -0.9552,-1.157 0,-1.458 6.0844,-10.2586 7.3417,-12.22l-2.8662 0.1508c-1.3077,1.2073 -3.4698,3.1179 -5.1801,5.1804 -0.9551,1.2064 -1.2571,1.4581 -1.2571,1.5584 0,0.2012 0.0503,0.3021 0.2006,0.3021 0.1513,0 0.3025,-0.2012 1.459,-1.5094 1.2573,-1.5085 2.2124,-2.4637 3.8219,-3.8213l0.1008 0.1003c-1.8106,2.4142 -5.1292,5.884 -5.1292,9.203 0,1.6593 0.7537,2.8158 2.5143,2.8158 2.3633,0 5.2799,-3.5698 6.7383,-5.0283l0.1008 0.1009c-0.1008,0.2511 -0.2514,0.7036 -0.2514,1.1564 0,1.8605 0.4527,3.771 2.8155,3.771 3.6218,0 6.135,-3.3691 6.6884,-3.4195 1.9111,-0.1004 3.3695,-0.8044 4.4765,-1.5589 1.3563,-0.9557 2.2115,-2.1116 2.2115,-2.212 0,-0.1513 -0.0499,-0.3026 -0.2505,-0.3026 -0.202,0 -0.3016,0.3026 -0.9561,1.0062 -0.955,1.0062 -2.8659,2.3633 -4.9778,2.4642l-0.1009 -0.1009c1.961,-1.458 4.9278,-6.1851 4.9278,-8.7496 0,-0.5533 -0.4513,-1.1066 -1.1569,-1.1066 -1.1058,0 -1.4073,0.402 -1.5581,3.0673 -0.3017,5.7838 -5.9837,10.3091 -9.153,10.3091 -0.8044,0 -1.2567,-0.4025 -1.2567,-1.1565 0,-2.0113 5.5829,-10.1583 6.9903,-12.22l-3.3198 0.3016z"></path> <path class="fil6 str0" d="M150.4557 14.2442c0,0.7547 0.4523,1.3073 1.1567,1.3073 1.1057,0 1.7589,-1.0556 1.7589,-1.9105 0,-0.7545 -0.4524,-1.3077 -1.1568,-1.3077 -1.1057,0 -1.7588,1.0561 -1.7588,1.9109zm-4.9291 8.1472l0 0c-0.7543,1.056 -3.0168,3.369 -4.3245,4.8778 -1.3077,1.508 -1.5083,1.7097 -1.5083,1.81 0,0.1508 0.0497,0.3021 0.2006,0.3021 0.1508,0 0.202,-0.0509 0.7044,-0.6537 2.4146,-2.7162 3.6711,-4.023 4.2745,-4.6271l0.101 0.1008c-1.7104,2.5649 -4.7782,5.9843 -4.7782,9.3534 0,1.5094 0.8552,2.615 2.4146,2.615 1.4074,0 3.4694,-1.3073 5.9339,-3.8718 2.1116,-2.2131 3.0677,-3.3696 3.0677,-3.5204 0,-0.2012 -0.1508,-0.2511 -0.3029,-0.2511 -0.101,0 -1.7602,2.0119 -3.0666,3.319 -1.6605,1.7093 -3.973,3.7216 -5.5823,3.7216 -0.4526,0 -0.9562,-0.2017 -0.9562,-1.0566 0,-1.0562 0.9562,-2.3633 6.991,-12.3204l-3.1689 0.2013z"></path> <path class="fil7 str0" d="M157.389 33.6051c0.804,-0.8548 1.4074,-1.8605 1.4074,-3.0673 0,-2.0622 -1.0558,-3.1682 -1.0558,-6.8896 0,-0.5028 0.1009,-0.6538 0.2018,-1.1565 0.9039,-0.3016 2.0109,-0.6036 2.0109,-1.5589 0,-0.4529 -0.2519,-0.7545 -0.8552,-0.7545 -1.107,0 -1.5596,1.458 -1.6592,1.509 -0.303,0.1503 -3.2187,3.2686 -4.3756,4.7265 -1.4075,1.7601 -2.2128,2.4137 -2.2128,2.7663 0,0.1003 0.0512,0.2012 0.2008,0.2012 0.1521,0 0.2518,-0.1513 0.4536,-0.4024 1.2068,-1.3576 5.2295,-6.1357 5.8329,-6.4877l0.101 0.1009c-0.303,0.2511 -0.303,2.3129 -0.303,4.7275 0,2.7149 -2.7138,8.247 -5.0786,8.247 -0.602,0 -0.8538,-0.3021 -0.8538,-0.755 0,-0.9053 0.703,-0.5028 0.703,-1.508 0,-0.4533 -0.5023,-0.8044 -1.0559,-0.8044 -0.905,0 -1.2566,0.5522 -1.2566,1.4071 0,0.5537 0.4028,1.408 0.8041,1.7105 0.6546,0.5029 1.107,0.5524 2.2627,0.5524 2.8159,0 5.1808,-1.6084 7.8958,-4.6763 1.0061,-1.1066 2.062,-2.3639 2.062,-2.5141 0,-0.2017 -0.101,-0.3025 -0.2518,-0.3025 -0.2008,0 -0.2008,0.252 -1.2566,1.4085 -0.8553,1.0056 -1.961,2.3633 -3.6213,3.5202l-0.1011 -0.1008 0.0013 0.1008z"></path> <path class="fil8 str0" d="M172.5188 17.7645c3.4691,-6.8388 6.7889,-11.2643 9.2022,-11.2643 1.107,0 1.5083,0.6032 1.5083,1.157 0,2.4636 -2.4133,6.0843 -6.7877,9.9066l-6.7391 5.9336 -0.1009 -0.1004 2.9171 -5.6325zm-9.3534 18.2045l0 0c1.4075,-2.8662 10.5601,-13.1752 13.2252,-13.1752 0.2519,0 0.5534,0.3015 0.5534,0.6536 0,2.0119 -5.5323,5.532 -5.5323,9.9571 0,2.2129 1.006,2.7658 2.012,2.7658 1.2067,0 2.8672,-0.5529 6.4375,-4.4761 1.3063,-1.4071 2.5144,-2.8161 2.5144,-2.9665 0,-0.1513 -0.1011,-0.2516 -0.2519,-0.2516 -0.2505,0 -1.4086,1.6093 -2.5642,2.7657 -2.816,2.9165 -4.3256,4.3248 -5.884,4.3248 -0.5035,0 -0.7541,-0.3525 -0.7541,-0.7041 0,-2.2126 5.531,-7.2918 5.531,-10.0574 0,-1.3077 -0.5522,-2.615 -2.0108,-2.615 -1.7601,0 -5.4313,3.1683 -11.0136,9.5546l-0.1011 -0.1009c1.6095,-2.3633 3.9742,-6.7888 4.175,-7.0903 1.7102,-2.5646 14.7347,-10.812 14.8343,-16.1424 0,-1.811 -0.7031,-2.5146 -2.4133,-2.5146 -5.8341,0 -12.0184,13.6277 -13.7786,15.8912 -3.3695,4.3247 -6.2354,7.0899 -6.2354,7.4424 0,0.2007 0.0497,0.3016 0.2006,0.3016 0.2008,0 0.2008,-0.2012 2.3636,-2.5646 1.8099,-1.9612 2.5143,-3.0173 3.9217,-4.5762l0.0512 0.1008c-2.8161,4.2237 -5.6322,8.8 -8.3984,13.4768l3.1177 0 0 0.0005z"></path> </g> </g> </svg> 